<svg id="Layer_1" data-name="Layer 1" xmlns="http://www.w3.org/2000/svg" viewBox="0 0 184.23 35.86">
    <defs>
        <style>
            .cls-1 {
                fill: #c079ff;
            }

            .cls-2 {
                fill: #29003e;
            }
        </style>
    </defs>
    <path class="cls-1"
        d="M37.68.93a2.2,2.2,0,0,0-3.87.52L22.66,32.91a2.2,2.2,0,0,0,4.14,1.5L38,3A2.23,2.23,0,0,0,37.68.93Z" />
    <path class="cls-2"
        d="M80.35,3.55a1.25,1.25,0,0,1,.79-.78,10.47,10.47,0,0,1,3.09-.4,11.53,11.53,0,0,1,3.22.41,1.25,1.25,0,0,1,.81.79L98.19,32.2a.65.65,0,0,1-.62.87h-7a.66.66,0,0,1-.63-.46l-1.56-5a.57.57,0,0,0-.54-.39H80.7a.57.57,0,0,0-.54.39l-1.52,5a.66.66,0,0,1-.63.46H71a.65.65,0,0,1-.62-.87ZM86.9,21.4,84.48,13a.18.18,0,0,0-.35,0L81.6,21.39a.22.22,0,0,0,.21.29h4.87A.22.22,0,0,0,86.9,21.4Z" />
    <path class="cls-2"
        d="M112.65,26a4.53,4.53,0,0,0,2.45-.63,5,5,0,0,0,1.65-1.68,7.6,7.6,0,0,0,.94-2.39,13.06,13.06,0,0,0,.29-2.83V3.94a1.21,1.21,0,0,1,.93-1.2,13.05,13.05,0,0,1,3.17-.37,14.25,14.25,0,0,1,3.23.37,1.21,1.21,0,0,1,.93,1.2V18.47a20.2,20.2,0,0,1-.81,5.86,12.64,12.64,0,0,1-2.49,4.72,11.8,11.8,0,0,1-4.25,3.13,14.6,14.6,0,0,1-6,1.15,14.25,14.25,0,0,1-6.16-1.21,11.8,11.8,0,0,1-4.22-3.24,13,13,0,0,1-2.41-4.72,20.69,20.69,0,0,1-.76-5.69V3.92A1.21,1.21,0,0,1,100,2.73a13.12,13.12,0,0,1,3.15-.36,14.29,14.29,0,0,1,3.26.36,1.23,1.23,0,0,1,.92,1.21V18.47a13.31,13.31,0,0,0,.3,2.85,7.68,7.68,0,0,0,.93,2.42,5,5,0,0,0,1.63,1.65A4.56,4.56,0,0,0,112.65,26Z" />
    <path class="cls-2"
        d="M184.23,26.57v5.7a.8.8,0,0,1-.81.8H163.59a.8.8,0,0,1-.8-.8V3.86a.85.85,0,0,1,.85-.85H183a.85.85,0,0,1,.85.85V9.52a.69.69,0,0,1-.69.69H171.06v4.23h10.11a.8.8,0,0,1,.8.81v5.07a.8.8,0,0,1-.8.81H171.06v4.74h12.47A.7.7,0,0,1,184.23,26.57Z" />
    <path class="cls-2"
        d="M18.36,31.19,25.17,12.3a2.17,2.17,0,0,0-.11-1.71,13.18,13.18,0,0,0-2.2-3.18A13.52,13.52,0,0,0,18.12,4.2,16.88,16.88,0,0,0,11.56,3H.88A.87.87,0,0,0,0,3.89V32.2a.87.87,0,0,0,.88.87H11.56a17.53,17.53,0,0,0,5.84-.93A1.59,1.59,0,0,0,18.36,31.19Zm-3.92-5.91a6.62,6.62,0,0,1-2.88.59H9.13A.87.87,0,0,1,8.25,25V11.09a.87.87,0,0,1,.88-.88h2.43a6.89,6.89,0,0,1,2.84.57,5.93,5.93,0,0,1,2.13,1.59,6.74,6.74,0,0,1,1.33,2.45A10,10,0,0,1,18.33,18a10.76,10.76,0,0,1-.44,3.13,7,7,0,0,1-1.32,2.5A5.78,5.78,0,0,1,14.44,25.28Z" />
    <path class="cls-2"
        d="M67.68,18.82v0a.62.62,0,0,0-.62-.62H54.34a.63.63,0,0,0-.63.62v4.73a.62.62,0,0,0,.63.62h3.35a4.81,4.81,0,0,1-3.8,1.75,6.4,6.4,0,0,1-5-2.22,7.8,7.8,0,0,1-1.43-2.51,10.2,10.2,0,0,1-.5-3.27,10.19,10.19,0,0,1,.5-3.24,8.3,8.3,0,0,1,1.41-2.56A6.39,6.39,0,0,1,51,10.41a6.13,6.13,0,0,1,2.72-.6,7.12,7.12,0,0,1,3.78,1.1,7,7,0,0,1,2.41,2.42.48.48,0,0,0,.71.13L66,9.3a.5.5,0,0,0,.13-.65,11,11,0,0,0-1.87-2.39,14,14,0,0,0-2.87-2.1,13.65,13.65,0,0,0-3.45-1.33A16.83,16.83,0,0,0,54,2.37,15.68,15.68,0,0,0,43,6.78a14.86,14.86,0,0,0-3.27,4.81,15.12,15.12,0,0,0-1.19,6,17.58,17.58,0,0,0,1.19,6.66,15.11,15.11,0,0,0,3.18,4.95,13.5,13.5,0,0,0,4.68,3.07,15.19,15.19,0,0,0,5.6,1.06,10.65,10.65,0,0,0,8.33-4.19h0v3.3a.63.63,0,0,0,.62.64h4.93a.63.63,0,0,0,.62-.64V18.82Z" />
    <path class="cls-2"
        d="M158.64,18.82v0a.62.62,0,0,0-.62-.62H145.29a.62.62,0,0,0-.62.62v4.73a.62.62,0,0,0,.62.62h3.36a4.84,4.84,0,0,1-3.8,1.75,6.4,6.4,0,0,1-5-2.22,7.62,7.62,0,0,1-1.43-2.51,9.93,9.93,0,0,1-.51-3.27,9.92,9.92,0,0,1,.51-3.24,8.28,8.28,0,0,1,1.4-2.56,6.43,6.43,0,0,1,2.13-1.68,6.06,6.06,0,0,1,2.71-.6,7.41,7.41,0,0,1,6.2,3.52.48.48,0,0,0,.71.13l5.37-4.16a.52.52,0,0,0,.13-.65,11.34,11.34,0,0,0-1.87-2.39,14.1,14.1,0,0,0-2.88-2.1,13.36,13.36,0,0,0-3.45-1.33,16.68,16.68,0,0,0-3.91-.46,15.63,15.63,0,0,0-11,4.41,14.89,14.89,0,0,0-3.28,4.81,15.12,15.12,0,0,0-1.19,6,17.58,17.58,0,0,0,1.19,6.66,15.11,15.11,0,0,0,3.18,4.95,13.5,13.5,0,0,0,4.68,3.07,15.19,15.19,0,0,0,5.6,1.06,10.63,10.63,0,0,0,8.33-4.19h0v3.3a.64.64,0,0,0,.63.64H158a.63.63,0,0,0,.62-.64V18.82Z" />
</svg>