<svg version="1.1" id="Layer_1" xmlns="http://www.w3.org/2000/svg" xmlns:xlink="http://www.w3.org/1999/xlink" x="0px"
    y="0px" viewBox="0 0 751.461 184.49" enable-background="new 0 0 751.461 184.49" xml:space="preserve">
    <g>
        <g>
            <path fill="#FFFFFF" d="M105.18,122.108h-2.133c-5.602,0-9.047-5.065-10.341-15.207C91.42,96.765,88.82,90.765,84.91,88.894
			c-7.89,5.024-9.663,6.541-11.812,11.835c-2.908,7.152-2.806,14.674-3.6,20.008c0,0-0.263,0.574-0.624,0.92
			c-0.362,0.339-0.764,0.55-2.746,1.164c-1.987,0.609-1.26,0.72-3.301,0.72c-2.045,0-3.118-1.953-3.729-2.933
			c-0.721-1.146-0.859-2.402-1.392-4.27c-1.307-4.271-2.179-12.803-2.629-25.607c-0.295-8.709-1.09-3.732-0.822-17.467
			c0.259-13.73-0.011-12.308,0.308-18.885c0.082-1.776,0.399-3.132,0.932-4.066c0.535-0.934,1.245-1.402,2.133-1.402
			c3.914,0,6.967-0.613,8.629,9.171c1.175,6.929,1.951,12.015,2.198,18.036c0.251,6.205,0.342,1.217,0.014,7.973
			c2.675-3.824,5.129-6.801,7.371-8.938c3.639-3.555,6.859-3.068,9.882-3.068c6.757,0,11.984,6.892,15.675,20.677
			C104.338,103.612,105.602,113.394,105.18,122.108z" />
            <path fill="#FFFFFF" d="M170.782,90.054c0,8.858-5.658,16.931-16.974,24.214c-10.242,6.537-20.155,9.809-29.737,9.809
			c-5.119,0-8.694-1.323-10.717-3.969c-2.029-2.651-3.035-6.625-3.035-11.924c0-6.709,1.673-13,5.015-18.877
			c3.347-5.877,7.906-10.763,13.693-14.652c2.063-1.742,3.636-3.017,4.71-3.847c1.982-1.57,3.842-2.368,5.574-2.368
			c7.269,0,14.045,1.787,20.324,5.345C167.068,78.007,170.782,83.43,170.782,90.054z M159.505,91.037
			c0-2.654-1.236-4.836-3.713-6.537c-2.48-1.695-5.123-2.551-7.934-2.551c-5.694,0-11.479,2.531-17.342,7.592
			c-5.871,5.062-8.8,10.371-8.8,15.929c0,2.239,0.827,3.813,2.481,4.727c1.651,0.912,3.673,1.369,6.067,1.369
			c4.958,0,10.906-2.154,17.847-6.472C155.709,100.364,159.505,95.681,159.505,91.037z" />
            <path fill="#FFFFFF" d="M188.902,124.586l-3.161,0.252c-1.263,0-2.446-0.174-3.542-0.504c-1.093-0.34-1.894-0.929-2.402-1.774
			c-0.083-0.332-0.503-5.521-1.266-15.552c-1.011-14.08-1.685-10.752-2.021-15.809c-0.678-10.371-1.015-14.168-1.015-15.684v-20.49
			c0-0.926,0-1.645,0-2.146c0-1.521,0.148-2.827,0.444-3.924c0.295-1.096,0.949-1.815,1.959-2.147
			c2.449,0.928,4.301,2.401,5.571,4.427c1.01,1.688,1.769,4.004,2.272,6.954c0.507,2.954,0.844,6.116,1.013,9.484
			c0.168,3.375,0.255,7.039,0.255,11.005c0,0.676,0-0.93,0-0.506c0,1.855,0,3.665,0,5.438c0,1.774,0,3.541,0,5.311
			c0,5.398,0.314,0.588,0.944,11.381C188.585,111.094,188.902,119.188,188.902,124.586z" />
            <path fill="#FFFFFF" d="M206.154,56.668c0,1.352-0.338,2.556-1.011,3.607c-0.679,1.055-1.688,1.58-3.036,1.58
			c-1.77,0-3.269-1.115-4.494-3.352c-1.219-2.231-1.832-4.408-1.832-6.514c0-1.346,0.296-2.607,0.887-3.795
			c0.587-1.18,1.516-1.77,2.78-1.77c1.773,0,3.331,1.202,4.684,3.605C205.479,52.434,206.154,54.648,206.154,56.668z
			 M212.984,95.127c0,5.905-0.148,10.949-0.445,15.127c-0.295,4.179-0.948,8.58-1.962,13.224c-4.044-0.504-6.786-2.105-8.216-4.812
			c-0.254-0.502-1.139-3.75-2.658-9.742c-0.335-1.35-0.591-2.932-0.755-4.748c-0.172-1.815-0.256-3.604-0.256-5.377
			c0-2.192,0.168-5.528,0.507-9.999c0.333-4.472,0.504-7.849,0.504-10.124c0.844,0,2.32-0.379,4.43-1.141
			c1.177-0.42,2.021-0.634,2.53-0.634c1.092,0,2.421,1.752,3.979,5.253c1.56,3.5,2.341,5.969,2.341,7.402L212.984,95.127
			L212.984,95.127z" />
            <path fill="#FFFFFF" d="M269.897,63.725c0,9.367-0.045,8.355-0.127,14.174c-0.337,23.198-0.51,35.934-0.51,38.211
			c-0.5-0.082-1.979-0.315-4.42-0.691c-2.451-0.381-4.304-0.57-5.569-0.57c-3.714,2.447-7.27,4.594-10.688,6.449
			c-3.413,1.855-7.104,2.779-11.065,2.779c-4.805,0-8.938-1.934-12.396-5.816c-3.454-3.877-5.184-8.262-5.184-13.152
			c0-5.898,2.572-12.18,7.714-18.843c5.484-7.084,11.089-10.624,16.825-10.624c1.77,0,3.306,0.126,4.613,0.376
			c1.31,0.258,3.182,0.721,5.628,1.398c0.506-1.689,0.906-3.275,1.201-13.359c0.295-10.08,1.914-12.389,4.869-15.509
			c3.207,1.265,5.525,3.183,6.96,5.755C269.176,56.875,269.897,60.016,269.897,63.725z M256.614,93.09
			c0-1.768-0.523-3.265-1.582-4.489c-1.051-1.216-2.422-1.833-4.106-1.833c-3.797,0-7.548,2.235-11.257,6.706
			c-3.716,4.467-5.565,8.643-5.565,12.521c0,1.688,0.462,3.158,1.394,4.426c0.927,1.27,2.231,1.896,3.914,1.896
			c3.041,0,6.663-2.442,10.881-7.336C254.506,100.094,256.614,96.129,256.614,93.09z" />
            <path fill="#FFFFFF" d="M322.385,109.586c0,2.864-0.195,5.498-0.574,7.897c-0.376,2.396-1.03,4.729-1.958,7.004
			c-3.204-0.834-5.777-2.508-7.709-5.022c-0.763-0.92-2.283-3.64-4.56-8.163c-0.336,0.846-3.372,3.143-9.104,6.896
			c-5.736,3.755-9.194,5.628-10.374,5.628c-4.471,0-7.738-1.476-9.8-4.429c-2.067-2.949-3.097-6.739-3.097-11.383
			c0-6.576,3.622-15.809,10.873-27.703c7.675-12.558,14.211-18.842,19.606-18.842c5.648,0,9.846,4.001,12.586,11.998
			C321.011,81.47,322.385,93.513,322.385,109.586z M308.092,78.421c0-0.507-0.024-1.116-0.065-1.833
			c-0.04-0.718-0.186-1.665-0.443-2.849c-0.756,0-1.75,0.382-2.969,1.142c-1.227,0.757-2.26,1.559-3.101,2.403
			c-1.856,1.94-4.553,6.449-8.093,13.528c-3.542,7.087-5.315,11.852-5.315,14.294v1.39c5.903-1.349,10.712-4.804,14.423-10.367
			C306.237,90.562,308.092,84.662,308.092,78.421z" />
            <path fill="#FFFFFF" d="M375.348,75.255c0,2.53-2.738,11.175-8.218,25.93c-4.81,12.899-1.158,6.198-7.267,20.912
			c-6.115,14.717-5.722,12.764-7.578,15.793c-0.842,1.352-1.811,2.383-2.903,3.104c-1.101,0.716-2.403,1.074-3.923,1.074
			c-1.943,0-3.627-0.424-5.062-1.267c-1.433-0.842-2.147-2.192-2.147-4.049c0-2.524,1.738-6.242,3.159-9.231
			c1.42-2.986,2.337-3.902,3.796-7.041c1.459-3.138,1.383-3.564,1.383-7.022c0-4.894-3.195-10.163-6.903-15.81
			c-3.46-4.809-6.915-9.656-10.373-14.547c-3.794-5.896-5.694-11.383-5.694-16.44c7,1.179,13.576,7.082,19.73,17.704
			c3.963,6.918,7.126,11.508,9.486,13.79c2.447-5.483,4.639-11.294,6.581-17.451c1.688-5.314,3.327-11.297,4.929-17.965l1.898-1.26
			c2.948,0.588,5.27,2.32,6.958,5.185C374.633,69.103,375.348,71.969,375.348,75.255z" />
        </g>
        <g>
            <path fill="#FDDC06" d="M436.344,110.58c0,4.299-3.795,7.925-11.385,10.873c-6.158,2.362-11.848,3.541-17.076,3.541
			c-8.43,0-15.344-1.812-20.74-5.451c-6.324-4.312-9.488-10.479-9.488-18.508c0-7.693,3.229-14.686,9.682-20.979
			c6.447-6.298,13.598-9.444,21.438-9.444c5.144,0,9.987,1.945,14.546,5.833c4.555,3.89,6.83,8.372,6.83,13.448
			c0,5.922-8.264,9.77-24.79,11.545c-9.362,0.762-15.137,1.227-17.325,1.396v2.403c0,2.201,1.937,4.104,5.812,5.715
			c3.295,1.354,6.239,2.027,8.854,2.027c3.291,0,7.377-0.888,12.271-2.66c4.889-1.769,9.907-3.623,15.052-5.562
			c1.52,0,2.945,0.589,4.301,1.767C435.667,107.709,436.344,109.06,436.344,110.58z M418.508,88.695
			c0-2.021-1.283-3.686-3.855-4.995c-2.57-1.306-4.992-1.961-7.273-1.961c-2.863,0-5.604,0.932-8.219,2.784
			c-1.518,1.097-3.625,3.123-6.324,6.07c3.812,0.926,8.139,1.389,12.969,1.389c1.945,0,4.047-0.123,6.287-0.377
			c2.246-0.251,4.389-0.588,6.422-1.012v-1.898H418.508z" />
            <path fill="#FDDC06" d="M486.565,117.651v5.564c-3.637-0.867-6.994-2.837-10.096-5.893c-7.614-7.495-14.198-11.426-15.09-11.788
			c-2.035,3.417-5.137,7.595-9.295,12.534c-2.037,2.396-4.074,4.799-6.104,7.195c-0.623-0.729-1.557-1.754-2.795-3.062
			c-2.301-2.407-3.447-4.339-3.447-5.795c0-2.407,2.873-7.181,8.633-14.318c2.654-3.274,3.984-6.261,3.984-8.956
			c0-3.209-6.342-7.364-9.656-12.464c-3.322-5.099-4.982-8.413-4.982-9.941c0-1.389,0.27-2.646,0.797-3.775
			c0.531-1.129,1.412-1.876,2.656-2.238c1.242,0.436,2.967,2.148,5.18,5.127c5.578,7.496,13.707,11.752,15.033,12.768
			c2.744-6.252,4.295-9.711,4.648-10.365c2.746-4.731,5.623-7.094,8.633-7.094c1.238,0,2.188,0.488,2.856,1.471
			c0.665,0.982,0.991,2.641,0.991,4.967c0,3.712-0.948,7.438-2.854,11.189c-1.906,3.744-3.877,7.516-5.912,11.297
			c0,0.944,5.629,5.346,12.207,13.205C485.028,110.994,486.565,114.451,486.565,117.651z" />
            <path fill="#FDDC06"
                d="M542.844,72.637l-0.885-0.255l-0.76-0.127c-0.592,0.587-0.885,1.178-0.885,1.765
			c0,0.421,0.211,1.053,0.635,1.893c-0.76,3.536-4.682,5.407-11.766,5.616c-7.084,0.211-11.764,1.706-14.041,4.478
			c-0.336,1.349-0.506,2.86-0.506,4.546c0,0.589,0,1.515,0,2.776c0,1.258,0,2.271,0,3.023c0,1.768-0.484,6.184-1.471,13.248
			c-0.453,3.278-0.678,5.891-0.678,7.823c0,2.437,0.379,4.791,1.139,7.066h-2.531c-3.121,0-5.438-1.017-6.955-3.029
			c-1.771-2.36-2.654-6.606-2.654-12.75c0-2.021,0.127-4.412,0.379-7.192c0.588-6.396,0.883-10.391,0.883-11.983
			c0-5.134-3.535-7.993-10.621-8.585c-7.086-0.59-10.623-3.74-10.623-9.465c0-0.589,0-1.177,0-1.768
			c0.082-0.506,0.293-1.553,0.633-3.154c3.959,0.677,6.197,1.053,6.699,1.142c2.699,0.421,5.021,0.632,6.959,0.632
			c4.303,0,7.336-1.27,9.107-3.812c1.428-2.111,1.779-4.556,1.732-6.174c-0.047-1.62-0.328-2.947-0.328-3.119
			c0-2.287,0.168-2.162,0.512-3.939c3.455,0.76,6.064,0.432,7.84,3.309c2.104,3.383,2.229,4.107,2.494,5.071
			c0.266,0.962,0.271,1.858,0.271,2.954c0,0.426,0.123,0.955,0.375,1.59c0.25,0.633,0.42,1.037,0.506,1.204
			c0.916,0.511,1.904,0.849,2.957,1.018c1.047,0.173,2.242,0.251,3.586,0.251c0.838,0,2.1-0.039,3.777-0.125
			c1.674-0.08,2.852-0.126,3.524-0.126c2.765,0,4.968,0.444,6.601,1.333C540.391,68.648,541.754,70.275,542.844,72.637z" />
            <path fill="#FDDC06" d="M596.292,78.83c0,0.846-0.338,1.688-1.012,2.53c-0.682,0.845-1.439,1.268-2.279,1.268
			c-0.502,0-1.896-0.381-4.17-1.14c-1.266-0.424-2.234-0.633-2.91-0.633c-5.479,0-11.215,3.752-17.203,11.258
			c-2.698,3.373-7.25,10.373-13.655,20.994c-4.554,7.588-7.804,11.388-9.739,11.388c-3.963,0-6.662-5.521-8.092-16.572
			c-0.762-7.249-1.521-14.543-2.277-21.881l-4.047-15.805c1.01-0.346,2.104-0.938,3.285-1.789c1.182-0.85,2.105-1.49,2.789-1.912
			c4.209,3.121,6.951,5.568,8.215,7.342c0.844,1.185,1.266,2.663,1.266,4.436c0,2.283,0.105,4.031,0.314,5.256
			c0.213,1.227,0.991,3.229,2.34,6.014c3.879-4.805,7.758-9.611,11.639-14.416c4.215-4.216,9.949-6.327,17.197-6.327
			c4.217,0,7.971,0.636,11.26,1.899C593.928,72.596,596.292,75.289,596.292,78.83z" />
            <path fill="#FDDC06" d="M636.284,109.617c0,2.862-0.193,5.498-0.57,7.897c-0.377,2.396-1.031,4.729-1.961,7.004
			c-3.207-0.834-5.777-2.51-7.709-5.022c-0.764-0.92-2.279-3.642-4.559-8.164c-0.336,0.847-3.373,3.144-9.105,6.897
			c-5.73,3.752-9.192,5.627-10.371,5.627c-4.475,0-7.736-1.477-9.803-4.43c-2.064-2.947-3.1-6.74-3.1-11.383
			c0-6.576,3.625-15.807,10.877-27.701c7.674-12.558,14.207-18.842,19.604-18.842c5.652,0,9.85,4.001,12.582,11.998
			C634.913,81.501,636.284,93.543,636.284,109.617z M621.991,78.453c0-0.508-0.021-1.119-0.062-1.834
			c-0.041-0.718-0.188-1.665-0.441-2.849c-0.762,0-1.748,0.382-2.973,1.142c-1.225,0.757-2.258,1.559-3.102,2.402
			c-1.855,1.941-4.553,6.45-8.09,13.529c-3.545,7.088-5.314,11.852-5.314,14.295v1.389c5.902-1.348,10.711-4.803,14.42-10.364
			C620.135,90.594,621.991,84.693,621.991,78.453z" />
            <path fill="#FDDC06"
                d="M701.262,104.25c0,8.856-6.748,15.013-20.234,18.47c-7.93,2.024-18.293,3.035-31.111,3.035
			c-6.072,0-8.219-0.384-10.75-1.138c-4.807-1.435-7.209-4.47-7.209-9.107l0.377-4.178c3.121,0,7.801,0.339,14.045,1.017
			c6.238,0.676,8.766,1.012,11.883,1.012c5.229,0,9.574-0.504,13.027-1.519c4.301-1.262,8.01-3.454,11.129-6.577l-1.262-1.136
			c-1.604,0-3.373-0.274-5.312-0.825c-1.939-0.547-3.795-1.117-5.562-1.705c-8.102-1.601-13.707-3.918-16.824-6.957
			c-2.701-2.614-4.047-6.023-4.047-10.246c0-5.565,2.949-10.327,8.852-14.29c5.229-3.543,10.83-5.312,16.824-5.312
			c3.709,0,6.871,0.846,9.484,2.528c2.609,1.69,4.342,4.259,5.184,7.718c-8.77,1.006-13.576,1.601-14.416,1.77
			c-5.562,1.184-9.695,3.415-12.395,6.702c15.178,3.624,22.891,5.481,23.145,5.565C696.206,92.701,701.262,97.765,701.262,104.25z" />
        </g>
    </g>
</svg>