<svg width="192" height="192" viewBox="0 0 192 192" fill="none" xmlns="http://www.w3.org/2000/svg">
<rect width="192" height="192" fill="#1A1A1A"/>
<path d="M50.2244 120H39.679L55.7472 73.4545H68.429L84.4744 120H73.929L62.2699 84.0909H61.9062L50.2244 120ZM49.5653 101.705H74.4744V109.386H49.5653V101.705ZM90.0767 120V73.4545H99.9176V92.6591H119.895V73.4545H129.713V120H119.895V100.773H99.9176V120H90.0767Z" fill="white"/>
<path d="M143.304 120.591C141.804 120.591 140.516 120.061 139.44 119C138.38 117.924 137.849 116.636 137.849 115.136C137.849 113.652 138.38 112.379 139.44 111.318C140.516 110.258 141.804 109.727 143.304 109.727C144.759 109.727 146.031 110.258 147.122 111.318C148.213 112.379 148.759 113.652 148.759 115.136C148.759 116.136 148.501 117.053 147.986 117.886C147.486 118.705 146.827 119.364 146.009 119.864C145.19 120.348 144.289 120.591 143.304 120.591Z" fill="#AD46FF"/>
</svg>
